<svg width="504" height="513" viewBox="0 0 504 513" fill="none" xmlns="http://www.w3.org/2000/svg">
<path fill-rule="evenodd" clip-rule="evenodd" d="M503.767 367.394C456.968 455.178 382.398 489.168 282.155 469.352C241.681 461.348 211.776 443.799 180.586 414.842C152.463 391.104 127.259 365.98 100.779 352.999C94.6248 350.291 88.0505 347.882 80.9673 345.837C76.7566 344.882 72.4916 344.287 68.1566 344.115C166.71 390.356 187.5 516.514 342.932 512.925C457.699 510.273 500.907 396.701 503.767 367.394Z" fill="#7e5bef"/>
<path fill-rule="evenodd" clip-rule="evenodd" d="M80.2032 292.242C105.476 247.689 146.635 227.857 190.326 225.744C277.346 221.536 338.971 304.555 364.594 289.787C368.459 287.563 370.287 283.688 368.416 278.392C360.544 256.108 324.459 232.037 288.72 216.832C362.847 205.077 419.666 260.923 442.272 277.28C460.152 290.221 455.06 249.448 430.066 232.45C483.901 251.669 509.602 321.153 480.058 366.371C463.922 391.07 427.871 408.373 391.506 397.906C300.051 371.577 222.293 219.506 80.2032 292.242Z" fill="#7e5bef"/>
<path fill-rule="evenodd" clip-rule="evenodd" d="M139.847 -0.000141824C153.724 68.9934 150.302 80.6222 88.9948 103.63C72.878 109.68 64.8733 131.983 33.0909 128.736C20.5764 127.458 8.71935 124.153 3.37154 125C-6.54365 126.571 7.9497 146.372 14.2891 151.289C66.6179 191.877 124.328 189.875 183.807 190.133C250.767 190.426 260.871 155.974 329.246 155.974C355.896 155.974 381.177 161.836 403.863 172.337C383.165 146.548 276.15 123.922 233.103 102.768C197.604 85.3261 197.899 21.9914 139.847 -0.000141824ZM150.01 15.9598C155.098 25.9221 162.058 66.2887 147.944 79.5779C164.102 75.1112 183.869 76.9657 209.541 95.7536C192.641 78.737 184.892 71.7227 174.653 51.1975L180.688 53.7574C174.859 39.9475 162.9 23.3622 150.01 15.9598Z" fill="#7e5bef"/>
<path fill-rule="evenodd" clip-rule="evenodd" d="M129.312 77.9885C129.931 54.3581 124.016 30.0407 109.277 4.79926C119.763 8.12926 129.518 13.0796 138.762 19.1451C142.094 38.4135 145.426 66.4983 129.312 77.9885Z" fill="#7e5bef"/>
<path fill-rule="evenodd" clip-rule="evenodd" d="M324.589 216.204C249.726 177.411 176.74 197.2 106.343 187.247C74.3996 183.332 43.5055 173.949 14.2892 151.289C11.9741 149.493 8.57305 145.713 5.66951 141.56H5.66736C35.1534 203.155 71.5223 226.477 140.932 230.429C146.181 230.728 151.162 231.055 155.915 231.424C167.03 228.162 178.586 226.311 190.326 225.744C277.346 221.536 338.971 304.555 364.594 289.787C368.459 287.563 370.287 283.688 368.416 278.392C360.544 256.108 324.459 232.037 288.72 216.832C300.781 214.928 312.818 214.891 324.589 216.204Z" fill="#CCCAC9"/>
<path fill-rule="evenodd" clip-rule="evenodd" d="M318.159 463.606C280.24 451.275 242.534 438.34 215.983 377.088C259.632 428.708 288.125 433.088 321.775 435.827C280.139 418.604 262.57 401.211 252.836 377.387C286.239 400.94 323.473 411.596 359.721 402.554C282.528 350.205 184.393 244.778 83.0626 304.999C88.253 296.456 90.7499 294.414 101.996 287.646C76.9794 290.363 55.086 326.035 43.6383 347.626C96.6122 330.388 144.101 384.044 180.586 414.842C211.776 443.799 241.681 461.348 282.155 469.352C288.661 470.639 310.238 465.094 318.159 463.606Z" fill="#CCCAC9"/>
</svg>
